<svg width="24" height="24" viewBox="0 0 24 24" fill="none" xmlns="http://www.w3.org/2000/svg">
<path d="M16.3134 8.39381C16.5087 8.19854 16.5087 7.88196 16.3134 7.6867C16.1181 7.49144 15.8016 7.49144 15.6063 7.6867L16.3134 8.39381ZM7.6867 15.6063C7.49144 15.8016 7.49144 16.1181 7.6867 16.3134C7.88196 16.5087 8.19854 16.5087 8.3938 16.3134L7.6867 15.6063ZM15.6063 16.3134C15.8016 16.5087 16.1181 16.5087 16.3134 16.3134C16.5087 16.1181 16.5087 15.8016 16.3134 15.6063L15.6063 16.3134ZM8.3938 7.6867C8.19854 7.49144 7.88196 7.49144 7.6867 7.6867C7.49144 7.88196 7.49144 8.19854 7.6867 8.3938L8.3938 7.6867ZM22.7 12C22.7 17.9095 17.9095 22.7 12 22.7V23.7C18.4618 23.7 23.7 18.4618 23.7 12H22.7ZM12 22.7C6.0906 22.7 1.30005 17.9095 1.30005 12H0.300049C0.300049 18.4618 5.53832 23.7 12 23.7V22.7ZM1.30005 12C1.30005 6.0906 6.0906 1.30005 12 1.30005V0.300049C5.53832 0.300049 0.300049 5.53832 0.300049 12H1.30005ZM12 1.30005C17.9095 1.30005 22.7 6.0906 22.7 12H23.7C23.7 5.53832 18.4618 0.300049 12 0.300049V1.30005ZM15.6063 7.6867L11.6465 11.6465L12.3536 12.3536L16.3134 8.39381L15.6063 7.6867ZM11.6465 11.6465L7.6867 15.6063L8.3938 16.3134L12.3536 12.3536L11.6465 11.6465ZM16.3134 15.6063L12.3536 11.6465L11.6465 12.3536L15.6063 16.3134L16.3134 15.6063ZM12.3536 11.6465L8.3938 7.6867L7.6867 8.3938L11.6465 12.3536L12.3536 11.6465Z" fill="#FFE899"/>
</svg>
